{
    "asset" : {
        "generator" : "Khronos glTF Blender I/O v1.2.75",
        "version" : "2.0"
    },
    "scene" : 0,
    "scenes" : [
        {
            "extras" : {
                "skinify" : {
                    "connect_mesh" : 0,
                    "connect_parents" : 0,
                    "generate_all" : 0,
                    "thickness" : 0.800000011920929,
                    "finger_thickness" : 0.25,
                    "apply_mod" : 1,
                    "parent_armature" : 1,
                    "sub_level" : 1
                },
                "glTF2ExportSettings" : {
                    "export_extras" : 1,
                    "export_format" : "GLTF_EMBEDDED",
                    "export_lights" : 1,
                    "export_nla_strips" : 0
                }
            },
            "name" : "Scene",
            "nodes" : [
                0,
                1,
                2
            ]
        }
    ],
    "nodes" : [
        {
            "mesh" : 0,
            "name" : "Blue E",
            "rotation" : [
                0.001447834074497223,
                0,
                0,
                1
            ],
            "scale" : [
                6.5058417320251465,
                2.9782536029815674,
                6.505843162536621
            ],
            "translation" : [
                -0.19227227568626404,
                0.03109085001051426,
                9.046090417541564e-05
            ]
        },
        {
            "mesh" : 1,
            "name" : "Nose and Mouth",
            "rotation" : [
                0.001447834074497223,
                0,
                0,
                1
            ],
            "scale" : [
                6.505842685699463,
                2.9782543182373047,
                6.505843639373779
            ],
            "translation" : [
                0,
                0.000638672907371074,
                0
            ]
        },
        {
            "mesh" : 2,
            "name" : "Black E",
            "rotation" : [
                0.0014478341909125447,
                0,
                0,
                1
            ],
            "scale" : [
                6.505842685699463,
                2.9782536029815674,
                6.505843639373779
            ],
            "translation" : [
                0.2191009819507599,
                0.031041549518704414,
                0.0015127281658351421
            ]
        }
    ],
    "animations" : [
        {
            "channels" : [
                {
                    "sampler" : 0,
                    "target" : {
                        "node" : 0,
                        "path" : "translation"
                    }
                },
                {
                    "sampler" : 1,
                    "target" : {
                        "node" : 0,
                        "path" : "rotation"
                    }
                },
                {
                    "sampler" : 2,
                    "target" : {
                        "node" : 0,
                        "path" : "scale"
                    }
                },
                {
                    "sampler" : 3,
                    "target" : {
                        "node" : 1,
                        "path" : "translation"
                    }
                },
                {
                    "sampler" : 4,
                    "target" : {
                        "node" : 1,
                        "path" : "rotation"
                    }
                },
                {
                    "sampler" : 5,
                    "target" : {
                        "node" : 1,
                        "path" : "scale"
                    }
                },
                {
                    "sampler" : 6,
                    "target" : {
                        "node" : 2,
                        "path" : "translation"
                    }
                },
                {
                    "sampler" : 7,
                    "target" : {
                        "node" : 2,
                        "path" : "rotation"
                    }
                },
                {
                    "sampler" : 8,
                    "target" : {
                        "node" : 2,
                        "path" : "scale"
                    }
                }
            ],
            "name" : "Animation",
            "samplers" : [
                {
                    "input" : 9,
                    "interpolation" : "LINEAR",
                    "output" : 10
                },
                {
                    "input" : 9,
                    "interpolation" : "LINEAR",
                    "output" : 11
                },
                {
                    "input" : 9,
                    "interpolation" : "LINEAR",
                    "output" : 12
                },
                {
                    "input" : 9,
                    "interpolation" : "LINEAR",
                    "output" : 13
                },
                {
                    "input" : 9,
                    "interpolation" : "LINEAR",
                    "output" : 14
                },
                {
                    "input" : 9,
                    "interpolation" : "LINEAR",
                    "output" : 15
                },
                {
                    "input" : 9,
                    "interpolation" : "LINEAR",
                    "output" : 16
                },
                {
                    "input" : 9,
                    "interpolation" : "LINEAR",
                    "output" : 17
                },
                {
                    "input" : 9,
                    "interpolation" : "LINEAR",
                    "output" : 18
                }
            ]
        }
    ],
    "materials" : [
        {
            "doubleSided" : true,
            "emissiveFactor" : [
                0,
                0,
                0
            ],
            "name" : "Material.002",
            "pbrMetallicRoughness" : {
                "baseColorFactor" : [
                    0,
                    0.2158605456352234,
                    0.5711250901222229,
                    1
                ],
                "metallicFactor" : 0.9082568883895874,
                "roughnessFactor" : 1
            }
        },
        {
            "doubleSided" : true,
            "emissiveFactor" : [
                0,
                0,
                0
            ],
            "name" : "Material.001",
            "pbrMetallicRoughness" : {
                "baseColorFactor" : [
                    0.09989900141954422,
                    0.09989874809980392,
                    0.09989875555038452,
                    1
                ],
                "metallicFactor" : 1,
                "roughnessFactor" : 1
            }
        }
    ],
    "meshes" : [
        {
            "name" : "path71",
            "primitives" : [
                {
                    "attributes" : {
                        "POSITION" : 0,
                        "NORMAL" : 1
                    },
                    "indices" : 2,
                    "material" : 0
                }
            ]
        },
        {
            "name" : "path69",
            "primitives" : [
                {
                    "attributes" : {
                        "POSITION" : 3,
                        "NORMAL" : 4
                    },
                    "indices" : 5,
                    "material" : 1
                }
            ]
        },
        {
            "name" : "path67",
            "primitives" : [
                {
                    "attributes" : {
                        "POSITION" : 6,
                        "NORMAL" : 7
                    },
                    "indices" : 8,
                    "material" : 1
                }
            ]
        }
    ],
    "accessors" : [
        {
            "bufferView" : 0,
            "componentType" : 5126,
            "count" : 1350,
            "max" : [
                0.02303367294371128,
                0.009999999776482582,
                0.020454831421375275
            ],
            "min" : [
                -0.01988186687231064,
                -0.009999999776482582,
                -0.023235788568854332
            ],
            "type" : "VEC3"
        },
        {
            "bufferView" : 1,
            "componentType" : 5126,
            "count" : 1350,
            "type" : "VEC3"
        },
        {
            "bufferView" : 2,
            "componentType" : 5123,
            "count" : 4044,
            "type" : "SCALAR"
        },
        {
            "bufferView" : 3,
            "componentType" : 5126,
            "count" : 568,
            "max" : [
                0.03809525817632675,
                0.020024962723255157,
                0.055049195885658264
            ],
            "min" : [
                -0.018399061635136604,
                2.496223896741867e-05,
                -0.05158670246601105
            ],
            "type" : "VEC3"
        },
        {
            "bufferView" : 4,
            "componentType" : 5126,
            "count" : 568,
            "type" : "VEC3"
        },
        {
            "bufferView" : 5,
            "componentType" : 5123,
            "count" : 1680,
            "type" : "SCALAR"
        },
        {
            "bufferView" : 6,
            "componentType" : 5126,
            "count" : 1164,
            "max" : [
                0.019020095467567444,
                0.009999999776482582,
                0.020267590880393982
            ],
            "min" : [
                -0.0237986221909523,
                -0.009999999776482582,
                -0.023371636867523193
            ],
            "type" : "VEC3"
        },
        {
            "bufferView" : 7,
            "componentType" : 5126,
            "count" : 1164,
            "type" : "VEC3"
        },
        {
            "bufferView" : 8,
            "componentType" : 5123,
            "count" : 3492,
            "type" : "SCALAR"
        },
        {
            "bufferView" : 9,
            "componentType" : 5126,
            "count" : 250,
            "max" : [
                10.458333333333334
            ],
            "min" : [
                0.08333333333333333
            ],
            "type" : "SCALAR"
        },
        {
            "bufferView" : 10,
            "componentType" : 5126,
            "count" : 250,
            "type" : "VEC3"
        },
        {
            "bufferView" : 11,
            "componentType" : 5126,
            "count" : 250,
            "type" : "VEC4"
        },
        {
            "bufferView" : 12,
            "componentType" : 5126,
            "count" : 250,
            "type" : "VEC3"
        },
        {
            "bufferView" : 13,
            "componentType" : 5126,
            "count" : 250,
            "type" : "VEC3"
        },
        {
            "bufferView" : 14,
            "componentType" : 5126,
            "count" : 250,
            "type" : "VEC4"
        },
        {
            "bufferView" : 15,
            "componentType" : 5126,
            "count" : 250,
            "type" : "VEC3"
        },
        {
            "bufferView" : 16,
            "componentType" : 5126,
            "count" : 250,
            "type" : "VEC3"
        },
        {
            "bufferView" : 17,
            "componentType" : 5126,
            "count" : 250,
            "type" : "VEC4"
        },
        {
            "bufferView" : 18,
            "componentType" : 5126,
            "count" : 250,
            "type" : "VEC3"
        }
    ],
    "bufferViews" : [
        {
            "buffer" : 0,
            "byteLength" : 16200,
            "byteOffset" : 0
        },
        {
            "buffer" : 0,
            "byteLength" : 16200,
            "byteOffset" : 16200
        },
        {
            "buffer" : 0,
            "byteLength" : 8088,
            "byteOffset" : 32400
        },
        {
            "buffer" : 0,
            "byteLength" : 6816,
            "byteOffset" : 40488
        },
        {
            "buffer" : 0,
            "byteLength" : 6816,
            "byteOffset" : 47304
        },
        {
            "buffer" : 0,
            "byteLength" : 3360,
            "byteOffset" : 54120
        },
        {
            "buffer" : 0,
            "byteLength" : 13968,
            "byteOffset" : 57480
        },
        {
            "buffer" : 0,
            "byteLength" : 13968,
            "byteOffset" : 71448
        },
        {
            "buffer" : 0,
            "byteLength" : 6984,
            "byteOffset" : 85416
        },
        {
            "buffer" : 0,
            "byteLength" : 1000,
            "byteOffset" : 92400
        },
        {
            "buffer" : 0,
            "byteLength" : 3000,
            "byteOffset" : 93400
        },
        {
            "buffer" : 0,
            "byteLength" : 4000,
            "byteOffset" : 96400
        },
        {
            "buffer" : 0,
            "byteLength" : 3000,
            "byteOffset" : 100400
        },
        {
            "buffer" : 0,
            "byteLength" : 3000,
            "byteOffset" : 103400
        },
        {
            "buffer" : 0,
            "byteLength" : 4000,
            "byteOffset" : 106400
        },
        {
            "buffer" : 0,
            "byteLength" : 3000,
            "byteOffset" : 110400
        },
        {
            "buffer" : 0,
            "byteLength" : 3000,
            "byteOffset" : 113400
        },
        {
            "buffer" : 0,
            "byteLength" : 4000,
            "byteOffset" : 116400
        },
        {
            "buffer" : 0,
            "byteLength" : 3000,
            "byteOffset" : 120400
        }
    ],
    "buffers" : [
        {
            "byteLength" : 123400,
            "uri" : "data:application/octet-stream;base64,"
        }
    ]
}
